<?xml version="1.0" standalone="no"?>
<!DOCTYPE svg PUBLIC "-//W3C//DTD SVG 20010904//EN"
 "http://www.w3.org/TR/2001/REC-SVG-20010904/DTD/svg10.dtd">
<svg version="1.0" xmlns="http://www.w3.org/2000/svg"
 width="1280.000000pt" height="1280.000000pt" viewBox="0 0 1280.000000 1280.000000"
 preserveAspectRatio="xMidYMid meet">

<g transform="translate(0.000000,1280.000000) scale(0.100000,-0.100000)"
fill="#000000" stroke="none">
<path d="M5905 11579 c-22 -10 -46 -19 -54 -19 -26 0 -116 -68 -178 -134 l-62
-65 -100 6 c-88 5 -107 3 -158 -16 -32 -12 -70 -32 -84 -45 -40 -35 -119 -135
-119 -151 0 -8 -9 -32 -20 -52 -27 -51 -28 -180 -1 -238 10 -22 21 -52 24 -67
8 -32 56 -104 89 -135 12 -11 43 -32 68 -46 81 -45 85 -55 70 -209 -7 -73 -20
-153 -28 -178 -20 -57 -22 -328 -3 -375 7 -16 16 -64 21 -106 8 -72 26 -117
75 -194 23 -35 126 -135 139 -135 6 0 27 -12 48 -27 35 -24 51 -27 156 -32
l117 -6 3 -37 c6 -72 -96 -213 -196 -269 -31 -18 -64 -38 -73 -46 -8 -7 -49
-19 -90 -27 -41 -8 -94 -19 -119 -25 -46 -10 -132 -24 -278 -43 -64 -9 -95 -8
-140 2 -78 17 -177 18 -235 0 -57 -17 -67 -9 -67 53 0 61 14 77 65 77 84 0
147 51 165 132 5 24 16 68 25 98 18 61 14 147 -10 215 -7 22 -16 56 -19 75
-11 65 -124 170 -184 170 -30 0 -116 -49 -141 -81 -13 -17 -30 -55 -37 -85 -7
-31 -18 -62 -25 -71 -8 -9 -15 -53 -17 -113 -4 -84 -1 -104 18 -146 21 -46 22
-63 21 -254 l-1 -205 -35 -32 c-19 -18 -43 -33 -54 -33 -31 0 -131 -55 -190
-104 -56 -46 -121 -121 -121 -138 0 -6 -11 -23 -25 -40 -14 -16 -25 -36 -25
-45 0 -8 -16 -41 -35 -74 -19 -33 -38 -72 -41 -87 -9 -37 -54 -102 -71 -102
-7 0 -39 14 -70 30 -31 16 -68 30 -83 30 -15 0 -39 9 -54 21 -20 16 -51 23
-134 31 -105 10 -291 6 -323 -7 -9 -3 -27 -29 -40 -57 -24 -51 -24 -54 -21
-347 3 -340 13 -417 61 -465 29 -29 30 -29 158 -30 l128 -1 -2 -34 c-1 -30
-12 -60 -77 -203 -24 -54 -35 -58 -106 -31 -38 15 -83 18 -300 17 -240 0 -258
-1 -308 -22 -29 -12 -65 -22 -81 -22 -16 0 -40 -9 -54 -20 -14 -11 -40 -23
-59 -27 -36 -7 -98 -40 -253 -138 -188 -119 -190 -121 -182 -191 3 -31 15 -55
46 -91 46 -55 52 -88 22 -131 -33 -49 -96 -144 -102 -156 -62 -117 -96 -218
-103 -299 -3 -43 -13 -106 -21 -139 -15 -54 -15 -67 -1 -128 9 -37 19 -108 22
-156 4 -52 14 -108 25 -133 11 -24 19 -53 19 -65 0 -11 11 -43 25 -71 13 -27
25 -57 25 -66 0 -9 9 -24 20 -34 11 -10 20 -24 20 -31 0 -7 17 -34 38 -61 22
-27 45 -59 52 -73 16 -29 160 -180 172 -180 5 0 38 -21 74 -46 59 -42 82 -74
52 -74 -92 3 -1022 -12 -1046 -16 -39 -7 -62 -37 -62 -80 0 -70 77 -92 259
-75 97 10 1176 13 4741 15 2538 2 4623 6 4632 10 10 5 27 23 39 42 26 43 19
81 -17 94 -15 6 -310 10 -753 10 -715 0 -728 0 -746 20 -24 27 -93 27 -127 0
-23 -18 -43 -19 -298 -20 -155 -1 -276 2 -281 7 -16 16 2 43 40 63 82 42 274
241 319 330 6 14 24 45 38 70 14 25 32 63 40 85 8 21 21 46 28 55 8 8 18 33
21 55 4 22 13 51 21 65 12 26 24 95 45 260 9 72 7 106 -9 220 -20 135 -18 160
13 160 7 0 25 -10 41 -22 30 -24 228 -108 255 -108 21 0 65 49 73 82 3 15 2
44 -3 65 -6 21 -17 65 -25 97 -8 33 -24 71 -34 85 -10 14 -22 43 -25 65 -3 21
-13 46 -21 55 -8 9 -18 30 -22 46 -4 17 -15 41 -26 54 -10 13 -18 31 -18 41 0
9 -9 25 -19 34 -11 10 -27 38 -35 63 -17 50 -12 67 29 113 49 54 65 195 36
334 -11 54 -21 99 -23 100 -2 1 -18 15 -37 30 l-34 28 -264 -3 c-222 -3 -266
-1 -273 11 -12 19 -2 75 21 121 l18 37 103 4 c86 3 111 8 153 30 66 34 96 63
123 119 l22 46 -2 934 -3 934 -25 33 c-13 18 -49 47 -80 64 l-55 33 -480 6
c-680 9 -1473 3 -1509 -10 -45 -18 -102 -67 -120 -105 -11 -23 -16 -61 -16
-116 0 -78 -1 -81 -22 -78 -12 2 -29 15 -37 29 -9 14 -24 38 -33 53 -10 14
-25 37 -33 50 -15 26 -98 95 -181 151 -46 30 -83 48 -189 89 -56 21 -58 24
-35 60 11 19 20 40 20 48 0 9 9 27 20 41 20 25 42 106 62 226 8 47 7 84 -1
140 -27 164 -29 189 -30 274 -1 86 -1 88 32 117 17 16 38 30 45 30 24 0 130
110 137 142 4 16 13 32 20 35 32 12 49 136 35 247 -16 128 -91 223 -230 293
-74 37 -77 38 -203 40 l-127 2 -63 63 c-84 84 -118 107 -175 123 -26 6 -58 17
-69 24 -35 18 -172 12 -218 -10z m210 -183 c11 -7 36 -18 55 -25 36 -11 130
-98 130 -120 0 -21 62 -121 87 -141 34 -27 50 -25 67 8 8 15 26 38 41 52 23
22 36 25 99 25 65 0 76 -3 107 -29 68 -57 84 -92 84 -181 0 -76 -2 -83 -33
-123 -19 -23 -55 -54 -80 -69 -42 -25 -55 -27 -151 -28 l-106 0 -3 49 c-2 33
2 53 12 65 9 10 19 31 22 48 5 26 2 34 -20 48 -48 31 -92 15 -161 -59 -70 -74
-130 -105 -222 -113 -102 -9 -143 19 -246 167 -16 22 -34 40 -41 40 -26 0
-101 -47 -105 -65 -2 -11 3 -33 12 -50 38 -79 50 -116 40 -126 -7 -7 -64 -9
-155 -7 -121 2 -147 6 -162 20 -9 10 -22 21 -29 25 -25 16 -70 95 -78 135 -17
92 33 186 119 224 71 31 96 30 193 -7 l81 -31 24 23 c13 13 31 45 39 72 17 58
89 132 144 147 20 6 47 17 61 25 32 19 149 20 175 1z m-258 -742 c116 -17 267
-15 403 5 92 14 132 8 169 -27 17 -15 39 -34 50 -42 16 -11 22 -31 27 -82 8
-83 -1 -99 -60 -97 -26 1 -58 -7 -86 -21 -45 -23 -48 -23 -407 -22 -200 0
-367 3 -373 7 -6 3 -10 48 -10 103 0 103 13 142 48 142 9 0 40 11 67 25 28 13
53 25 57 25 4 0 56 -7 115 -16z m548 -425 c28 -6 73 -13 100 -17 l50 -7 -2
-60 c-2 -80 -48 -216 -108 -325 -21 -36 -155 -160 -174 -160 -9 0 -35 -9 -56
-21 -71 -36 -157 -58 -293 -75 -201 -25 -276 -2 -337 101 -29 51 -32 81 -7 93
9 5 82 12 162 15 119 4 153 9 190 26 25 11 56 21 70 21 35 1 166 91 196 135
47 69 66 119 71 179 7 104 8 106 51 105 20 0 60 -5 87 -10z m-595 -34 c0 -15
-14 -20 -85 -29 -62 -8 -85 -41 -85 -124 0 -37 -4 -72 -8 -78 -11 -16 -83 -25
-99 -12 -9 7 -13 43 -13 128 0 64 3 120 7 123 3 4 69 7 145 7 115 0 138 -2
138 -15z m-1022 -818 c2 -115 1 -128 -17 -146 -12 -12 -26 -18 -33 -16 -7 3
-23 35 -35 71 l-21 67 20 81 c11 44 26 84 32 88 6 4 20 1 31 -6 18 -12 20 -26
23 -139z m1908 96 c89 -40 124 -68 181 -141 28 -37 60 -76 70 -87 10 -11 31
-47 47 -80 15 -33 34 -72 42 -87 8 -14 14 -39 14 -56 0 -16 10 -42 22 -57 17
-21 23 -48 29 -114 4 -47 14 -105 23 -128 11 -30 19 -111 27 -264 12 -239 11
-246 -39 -234 -13 3 -40 -4 -67 -18 -38 -21 -55 -23 -122 -20 -43 2 -105 11
-138 18 -42 10 -146 15 -342 18 -163 1 -287 7 -292 12 -5 6 -11 32 -13 60 l-3
49 92 51 c50 27 111 66 135 85 23 20 56 44 73 55 45 28 164 151 223 230 77
103 94 184 48 230 -33 33 -75 22 -98 -27 -34 -72 -259 -280 -367 -339 -23 -13
-64 -36 -90 -50 -128 -73 -240 -119 -316 -131 -33 -5 -94 -16 -135 -24 -91
-18 -425 -35 -455 -24 -20 7 -23 18 -28 101 -4 51 -7 125 -7 166 0 70 1 74 26
83 14 6 53 10 87 10 34 1 80 5 102 9 22 5 67 14 100 21 33 6 71 17 85 24 14 8
43 17 65 21 22 3 49 15 60 24 11 10 35 23 53 29 40 14 140 89 176 134 62 76
93 119 136 188 56 89 139 191 168 206 12 6 30 18 39 26 10 9 35 21 55 27 21 7
40 17 43 22 4 5 57 9 119 9 102 0 120 -3 172 -27z m1424 -32 c16 -31 13 -227
-5 -244 -11 -12 -81 -16 -381 -22 -437 -9 -399 -22 -390 129 7 134 12 139 149
147 56 3 218 6 359 7 245 2 258 1 268 -17z m249 10 c13 -8 15 -93 13 -588 -2
-527 -4 -579 -19 -590 -24 -18 -47 -16 -68 7 -17 19 -18 37 -10 303 5 155 7
409 6 565 -3 214 0 286 9 297 14 17 47 19 69 6z m901 -11 c11 -17 12 -136 2
-195 l-7 -40 -60 -8 c-33 -5 -192 -11 -354 -13 -234 -4 -296 -2 -302 8 -14 22
-11 242 3 256 10 10 95 12 361 10 296 -3 349 -5 357 -18z m-1166 -356 c9 -3
16 -16 16 -29 0 -22 -4 -23 -102 -29 -57 -3 -195 -8 -308 -11 -113 -4 -221
-11 -240 -16 -19 -6 -55 -9 -80 -7 -43 3 -45 5 -45 33 l0 30 225 8 c124 4 257
11 295 16 87 10 218 13 239 5z m1177 -21 c30 -30 -5 -33 -367 -33 -343 0 -365
1 -362 18 2 12 17 19 48 24 77 11 669 3 681 -9z m-1156 -195 c3 -13 4 -151 3
-308 l-3 -285 -365 -3 c-201 -1 -374 0 -386 3 -20 4 -21 11 -28 284 -8 296 -5
316 36 324 13 2 184 5 380 6 l358 1 5 -22z m1075 11 c39 0 68 -5 72 -12 4 -7
8 -139 8 -295 0 -259 -1 -283 -17 -289 -10 -4 -175 -7 -368 -7 l-350 -1 -3
295 c-1 162 0 301 3 308 4 10 62 12 297 7 161 -3 322 -5 358 -6z m-4213 -161
c54 -59 63 -79 63 -143 -1 -113 -64 -191 -164 -202 -53 -6 -132 27 -183 77
-31 29 -33 35 -33 103 0 84 8 99 82 157 48 39 52 40 127 40 74 0 78 -1 108
-32z m-479 -210 c20 -20 14 -45 -20 -75 -43 -38 -66 -70 -144 -205 -48 -84
-204 -401 -261 -533 -29 -66 -57 -131 -63 -145 -6 -14 -24 -47 -40 -75 -43
-75 -102 -196 -160 -330 -28 -66 -83 -184 -121 -262 -38 -78 -69 -144 -69
-148 0 -3 -16 -40 -36 -83 -20 -42 -46 -99 -59 -127 -12 -27 -52 -111 -88
-185 -36 -74 -68 -147 -72 -162 -4 -14 -15 -34 -26 -44 -10 -9 -19 -23 -19
-30 0 -27 -111 -244 -135 -262 -26 -21 -60 -19 -68 3 -3 7 12 50 32 97 21 47
41 100 45 118 3 19 12 41 20 49 8 9 29 54 47 101 18 47 38 92 45 100 6 8 15
31 19 50 4 19 13 42 20 50 11 13 90 173 124 250 6 14 15 32 20 40 20 33 111
227 111 237 0 6 7 16 14 23 8 6 20 28 27 48 6 20 27 68 45 105 18 37 36 83 40
102 3 18 17 48 30 66 13 18 24 38 24 45 0 7 15 39 34 72 19 33 39 76 46 96 6
20 15 38 20 41 12 8 120 230 120 248 0 8 9 22 20 32 11 10 20 26 20 35 0 10
18 54 40 98 22 44 40 87 40 96 0 9 9 25 21 37 11 11 25 35 31 52 6 18 16 39
23 47 7 8 18 32 24 52 7 20 19 42 27 48 7 7 14 20 14 30 0 21 27 55 113 142
68 68 99 82 125 56z m1450 -265 c11 -21 25 -82 32 -137 14 -120 12 -123 -90
-137 -70 -10 -99 -19 -130 -39 -8 -5 -33 -14 -55 -20 -22 -5 -67 -28 -100 -49
-33 -22 -67 -40 -75 -40 -8 -1 -35 9 -60 20 -25 11 -94 30 -153 41 -94 18
-110 24 -119 44 -20 44 -87 73 -195 85 -160 18 -265 -9 -305 -76 -22 -38 -49
-51 -133 -64 -71 -11 -170 -53 -178 -75 -7 -17 -42 -22 -52 -6 -3 5 8 39 25
76 16 37 30 72 30 78 0 7 9 29 20 51 11 21 25 54 31 73 6 19 26 60 44 92 18
33 36 68 40 79 10 34 49 36 99 7 25 -14 53 -26 63 -26 10 0 35 -9 56 -20 51
-27 191 -28 241 -2 31 17 66 19 357 20 178 2 340 7 359 12 99 26 186 46 217
49 7 0 21 -16 31 -36z m2420 -95 c7 -7 12 -28 12 -48 0 -20 -5 -41 -12 -48
-17 -17 -83 -15 -98 3 -14 17 -7 69 11 92 14 16 71 17 87 1z m-220 -10 c7 -7
12 -27 12 -45 0 -26 -5 -34 -22 -38 -13 -3 -198 -4 -413 -3 l-390 3 -3 27 c-3
21 2 30 20 38 55 23 774 40 796 18z m956 -15 l167 -6 -3 -26 c-3 -25 -6 -26
-93 -32 -49 -4 -212 -7 -361 -8 -232 -1 -273 1 -284 14 -10 12 -10 21 -2 40
l12 25 198 0 c109 0 274 -3 366 -7z m-2021 -40 l98 -6 -3 -26 c-3 -26 -4 -26
-108 -32 -201 -13 -860 -11 -876 2 -18 15 -18 34 2 53 13 14 64 16 402 16 213
0 431 -3 485 -7z m-3553 -50 c7 -7 -1 -434 -9 -474 -6 -29 -12 -35 -43 -43
-68 -17 -68 -16 -68 265 0 279 -2 271 74 261 23 -2 43 -7 46 -9z m250 -54 c0
-16 -31 -22 -43 -10 -9 9 -9 14 2 20 16 10 41 4 41 -10z m4325 -83 c17 -12 18
-24 12 -141 -3 -70 -11 -133 -17 -139 -13 -13 -713 -27 -747 -15 -22 8 -23 13
-22 126 1 65 4 129 8 143 l7 25 364 5 c201 3 368 6 371 8 3 1 14 -4 24 -12z
m253 2 c8 -8 12 -55 12 -144 0 -107 -3 -136 -16 -148 -19 -20 -24 -20 -52 0
-21 14 -22 22 -22 140 0 69 5 134 10 145 12 21 50 25 68 7z m840 -8 c47 0 54
-3 62 -26 16 -41 13 -220 -4 -237 -24 -24 -691 -38 -714 -15 -13 13 -18 269
-5 282 4 4 143 5 308 2 165 -3 324 -6 353 -6z m-2211 -52 c14 -13 36 -18 76
-18 62 0 72 -14 42 -54 -8 -11 -15 -28 -15 -38 0 -10 -8 -31 -19 -46 -10 -15
-38 -58 -61 -95 -29 -45 -62 -82 -101 -110 -82 -60 -144 -97 -162 -97 -8 0
-34 -9 -58 -19 -24 -10 -75 -22 -114 -26 -38 -3 -110 -12 -160 -20 -49 -7
-152 -16 -228 -19 l-139 -7 -49 51 c-52 53 -71 59 -108 34 -18 -13 -22 -23
-18 -48 8 -49 32 -139 44 -161 6 -11 21 -65 33 -120 12 -55 29 -125 37 -155 8
-30 21 -82 29 -115 8 -33 21 -76 29 -95 8 -19 19 -57 24 -85 14 -77 41 -185
61 -240 24 -66 32 -143 24 -218 -6 -52 -12 -66 -43 -96 -43 -43 -80 -62 -181
-93 -63 -19 -96 -23 -211 -22 -243 0 -261 36 -99 191 30 29 58 53 62 53 4 0
14 7 22 16 21 20 21 124 1 163 -8 16 -19 46 -24 67 -27 106 -54 191 -66 204
-7 8 -16 31 -19 50 -9 44 -43 147 -61 180 -7 14 -18 56 -23 94 -6 37 -19 77
-28 87 -10 12 -19 47 -24 98 -5 43 -16 93 -24 109 -20 39 -22 159 -2 187 7 11
19 37 26 59 19 59 149 183 235 225 162 78 238 101 420 130 103 16 172 19 486
17 334 -1 369 -3 386 -18z m-3161 4 c6 -4 14 -17 18 -28 18 -57 -44 -105 -112
-88 -32 8 -37 13 -40 42 -4 36 10 59 43 72 25 11 77 12 91 2z m1294 -123 c197
-14 234 -21 238 -42 2 -10 -3 -26 -11 -35 -9 -9 -35 -57 -59 -107 -41 -86 -43
-95 -46 -195 -4 -109 14 -237 42 -305 14 -32 14 -36 -4 -45 -11 -6 -134 -10
-310 -10 -288 0 -293 0 -339 24 -25 13 -64 32 -85 42 -80 38 -124 93 -166 204
-49 131 -21 285 64 356 76 63 97 75 133 81 21 3 47 11 58 16 45 24 275 31 485
16z m2940 -328 c193 -14 241 -21 243 -36 1 -7 -204 -11 -595 -13 -458 -2 -598
1 -598 10 0 6 10 22 22 35 l22 24 366 -4 c201 -2 444 -9 540 -16z m-3899 -84
c6 -50 17 -81 62 -172 31 -62 74 -131 98 -160 15 -17 40 -62 96 -170 18 -37
51 -109 78 -175 38 -91 41 -97 80 -168 40 -74 44 -118 16 -183 -11 -24 -23
-71 -26 -104 -4 -33 -14 -72 -21 -87 -18 -35 -18 -142 0 -177 8 -15 18 -52 21
-82 9 -76 87 -279 107 -279 5 0 14 -12 20 -27 40 -93 207 -241 338 -301 155
-72 110 -65 500 -72 195 -4 675 -6 1065 -5 399 1 718 -2 728 -7 9 -5 29 -27
42 -49 48 -75 228 -243 314 -293 76 -43 98 -69 69 -77 -7 -2 -923 -3 -2035 -1
-1807 2 -2023 4 -2023 18 0 18 27 43 111 104 83 61 167 138 195 180 13 19 44
64 70 100 26 35 51 78 57 95 15 43 48 85 67 85 10 0 29 -11 43 -24 29 -27 121
-76 141 -76 24 0 49 40 57 92 5 29 9 177 9 328 1 221 -2 286 -15 330 -9 30
-22 80 -30 110 -7 30 -26 87 -40 125 -15 39 -33 90 -41 115 -8 25 -21 50 -28
55 -8 6 -21 26 -30 45 -16 35 -26 51 -81 130 -16 23 -37 53 -45 66 -25 35
-192 194 -222 210 -47 24 -54 50 -24 93 14 20 26 42 26 48 0 5 17 41 38 79 21
38 43 88 50 110 7 23 19 47 27 54 8 7 15 18 15 24 0 23 59 134 77 145 30 17
38 8 44 -52z m5314 -233 c14 -15 16 -29 12 -81 -6 -61 -35 -123 -58 -123 -5 0
-49 37 -98 83 -127 117 -123 127 60 135 53 3 70 0 84 -14z m-1524 -14 c20 -11
24 -36 10 -59 -9 -14 -176 -45 -198 -37 -52 20 62 100 150 105 10 1 27 -4 38
-9z m1024 -20 c10 -11 24 -20 31 -20 21 0 125 -99 294 -280 76 -82 169 -239
213 -360 35 -97 35 -114 1 -106 -65 17 -124 68 -347 306 -99 106 -162 158
-227 188 -14 7 -32 16 -40 21 -33 21 -130 61 -148 61 -10 0 -27 9 -37 20 -10
11 -23 20 -29 20 -7 0 -30 10 -51 22 -37 20 -59 22 -250 27 -200 6 -210 7
-213 26 -6 50 -6 50 345 50 325 0 329 0 357 23 36 27 77 28 101 2z m-1400 -32
c6 -6 5 -12 -4 -17 -13 -9 -1144 -20 -1303 -13 -75 4 -88 7 -88 21 0 10 2 20
6 23 9 10 1378 -4 1389 -14z m-4382 -98 c23 -5 72 -12 109 -15 36 -4 74 -12
84 -20 17 -12 18 -14 2 -32 -9 -10 -21 -37 -28 -61 -15 -58 -43 -71 -96 -43
-54 29 -248 30 -329 2 -30 -11 -89 -22 -132 -26 -43 -4 -98 -15 -123 -25 -187
-72 -224 -84 -252 -77 -42 11 -41 34 3 82 43 47 189 126 259 140 19 4 49 15
65 25 18 11 71 23 135 31 58 7 114 16 125 20 28 11 129 11 178 -1z m1590 -116
c27 -8 38 -39 44 -121 l6 -76 -33 -29 c-19 -16 -41 -27 -49 -26 -17 4 -131
221 -131 251 0 18 5 19 73 13 39 -4 80 -9 90 -12z m572 -14 c0 -13 -26 -15
-164 -18 -158 -2 -192 3 -176 27 4 8 59 11 173 9 141 -3 167 -5 167 -18z
m2138 11 l25 -10 -17 -48 c-9 -26 -25 -61 -35 -78 -11 -16 -31 -48 -45 -70
-63 -99 -184 -226 -259 -272 -60 -36 -156 -83 -172 -83 -8 0 -44 -9 -78 -20
-90 -28 -236 -28 -312 1 -99 37 -139 61 -188 109 -48 47 -95 128 -107 184 -3
15 -14 40 -24 55 -11 14 -22 48 -25 75 -3 27 -13 60 -21 72 -15 24 -20 75 -8
87 10 11 1238 8 1266 -2z m514 -3 c5 -7 17 -44 25 -83 23 -104 72 -275 118
-410 22 -66 47 -140 55 -165 24 -79 47 -144 69 -194 19 -46 20 -49 3 -61 -10
-7 -26 -11 -35 -8 -19 5 -56 63 -66 105 -3 15 -17 44 -31 64 -14 20 -25 44
-25 53 0 9 -7 26 -15 37 -8 12 -28 61 -44 110 -16 49 -39 107 -50 129 -12 21
-21 47 -21 57 0 10 -9 37 -19 60 -37 83 -60 143 -66 172 -3 16 -15 41 -26 54
-22 28 -25 62 -7 80 16 16 123 16 135 0z m417 -154 c43 -8 90 -14 105 -14 14
0 42 -8 61 -19 19 -10 46 -22 60 -26 28 -9 171 -89 210 -117 75 -56 166 -132
174 -146 6 -10 20 -25 33 -35 13 -10 23 -26 23 -36 0 -10 9 -26 20 -36 11 -10
20 -23 20 -29 0 -6 9 -27 19 -47 11 -20 23 -54 27 -75 4 -21 16 -58 27 -83 17
-40 19 -61 15 -225 -4 -141 -8 -187 -20 -206 -9 -14 -19 -42 -22 -62 -7 -37
-28 -91 -68 -178 -56 -119 -229 -308 -323 -351 -50 -23 -72 -37 -113 -71 -20
-17 -45 -28 -63 -28 -16 0 -42 -9 -58 -21 -37 -27 -150 -42 -283 -37 -91 4
-114 8 -158 31 -29 15 -64 27 -80 27 -15 0 -33 7 -40 15 -7 8 -33 21 -59 29
-25 8 -66 26 -91 40 -25 14 -59 33 -76 41 -31 14 -154 140 -154 156 0 5 33 9
73 9 68 0 78 -3 191 -60 65 -33 130 -60 143 -60 13 0 45 -10 71 -21 67 -31
304 -40 372 -14 25 9 69 25 98 35 155 55 369 249 437 395 15 33 36 79 47 102
18 39 19 61 16 255 l-3 213 -43 84 c-23 46 -52 95 -63 110 -71 92 -102 125
-164 175 -38 31 -76 62 -84 68 -8 6 -37 18 -64 25 -28 7 -58 20 -68 29 -14 13
-49 19 -146 24 -149 9 -163 18 -163 99 0 70 -12 67 164 35z m-4513 -76 c41
-46 91 -104 112 -129 44 -54 137 -223 137 -247 0 -10 9 -33 19 -53 11 -20 23
-54 27 -75 4 -22 13 -54 21 -72 9 -21 17 -103 23 -215 12 -236 12 -230 -4
-252 -12 -17 -15 -15 -38 31 -18 36 -26 73 -31 140 -4 49 -14 110 -23 135 -8
24 -20 75 -25 113 -10 77 -45 173 -89 244 -17 26 -36 61 -44 77 -22 46 -74
115 -151 200 -38 42 -73 83 -78 90 -4 8 0 32 9 54 25 63 47 56 135 -41z m1484
56 c0 -18 -8 -19 -133 -18 -265 3 -309 32 -54 36 202 4 187 5 187 -18z m-2173
-45 c15 -8 18 -17 13 -37 -4 -15 -12 -30 -18 -34 -7 -4 -56 -8 -111 -8 -79 0
-105 -4 -130 -19 -17 -10 -58 -21 -91 -24 -74 -7 -198 -69 -281 -141 -68 -59
-174 -190 -174 -215 0 -10 -9 -29 -19 -42 -49 -63 -86 -324 -60 -424 6 -22 16
-68 23 -102 7 -33 23 -77 35 -96 11 -19 21 -41 21 -50 0 -22 106 -152 174
-214 64 -58 204 -143 236 -143 11 0 40 -10 63 -22 36 -19 62 -23 190 -26 177
-5 247 2 278 29 12 10 29 19 37 19 15 0 54 21 127 69 85 56 258 261 280 332 4
13 14 32 22 41 8 9 18 45 23 80 4 35 15 80 24 100 22 50 20 117 -4 178 -11 28
-20 67 -20 87 0 43 -68 199 -107 244 -14 16 -75 114 -99 158 -15 28 -8 51 14
51 21 0 119 -102 160 -167 17 -26 38 -55 46 -63 8 -8 18 -29 22 -45 4 -17 13
-40 21 -51 7 -12 25 -61 38 -110 20 -73 25 -112 25 -214 0 -137 -18 -268 -44
-315 -9 -16 -16 -41 -16 -53 0 -15 -7 -26 -18 -29 -13 -3 -18 -14 -18 -38 0
-22 -8 -43 -22 -57 -13 -13 -51 -52 -85 -88 -76 -79 -137 -130 -154 -130 -7 0
-13 -9 -13 -20 0 -13 -9 -22 -27 -26 -16 -4 -34 -16 -41 -26 -7 -10 -20 -18
-27 -18 -8 0 -22 -11 -31 -25 -13 -19 -25 -25 -55 -25 -29 0 -44 -7 -64 -27
l-25 -28 -203 0 c-192 0 -204 1 -238 23 -20 12 -48 22 -61 22 -14 0 -36 9 -50
19 -13 11 -42 24 -63 31 -22 6 -60 24 -85 40 -25 16 -58 36 -75 43 -52 25
-255 235 -255 264 0 5 -11 24 -25 43 -14 19 -25 41 -25 49 0 9 -6 28 -14 42
-7 15 -26 63 -41 108 -26 80 -27 84 -22 284 4 169 8 210 24 252 30 78 56 128
80 158 13 16 23 33 23 38 0 9 27 49 70 102 20 25 150 117 165 117 7 0 23 9 37
19 13 11 38 23 54 26 16 3 47 14 69 25 61 28 153 53 220 61 102 10 275 10 297
-2z m2225 -94 c3 -9 4 -18 2 -20 -2 -2 -95 -7 -206 -11 -158 -5 -206 -4 -218
6 -12 10 -13 16 -4 26 9 11 55 14 216 14 174 0 204 -2 210 -15z m2369 -40 l26
-56 -60 -57 c-33 -31 -73 -75 -88 -97 -16 -21 -36 -47 -44 -56 -8 -9 -23 -29
-32 -45 -10 -16 -21 -36 -26 -44 -30 -50 -46 -134 -51 -267 -3 -78 -9 -144
-13 -148 -17 -17 -98 -17 -123 -1 -24 16 -25 21 -25 109 0 94 28 239 55 282 7
11 16 34 20 51 3 17 17 46 31 65 13 18 24 39 24 47 0 46 212 272 256 272 19 0
29 -11 50 -55z m-2968 -115 c29 -39 28 -93 -3 -151 -20 -38 -25 -67 -31 -160
-7 -112 -6 -115 18 -144 14 -17 29 -41 33 -55 10 -34 43 -89 71 -120 51 -55
129 -130 135 -130 4 0 20 -10 36 -23 15 -12 55 -34 88 -47 l60 -25 430 1 c237
0 904 6 1482 13 1030 13 1053 13 1085 -6 46 -27 47 -50 2 -89 -36 -33 -41 -34
-118 -35 -45 0 -139 -7 -211 -16 -109 -13 -327 -16 -1367 -20 -1220 -4 -1238
-4 -1305 16 -37 11 -93 29 -124 40 -58 21 -174 93 -215 134 -47 48 -124 150
-124 166 0 9 -6 25 -14 36 -8 11 -26 56 -42 100 -25 71 -28 93 -27 200 0 102
4 132 27 199 14 44 32 87 40 95 7 9 16 24 19 34 9 25 30 21 55 -13z m341 -12
l26 -11 -26 -7 c-36 -10 -141 2 -146 17 -8 23 88 24 146 1z m3282 3 c79 -20
187 -77 229 -120 14 -14 48 -47 75 -72 57 -53 86 -105 116 -204 17 -59 19 -85
13 -165 -14 -206 -46 -290 -147 -393 -85 -85 -101 -97 -186 -146 -101 -59
-175 -74 -300 -60 -153 17 -161 34 -21 42 93 5 149 34 215 112 25 29 70 68
101 86 116 71 137 93 196 208 25 49 28 64 28 156 0 90 -3 110 -27 161 -68 150
-191 254 -319 269 -33 3 -65 10 -71 13 -30 20 -44 97 -21 120 16 16 32 15 119
-7z m-5372 -10 c9 -6 12 -19 7 -43 -11 -57 -26 -69 -97 -77 -48 -6 -80 -17
-129 -46 -83 -49 -167 -137 -181 -189 -6 -22 -19 -51 -30 -64 -10 -14 -19 -37
-19 -53 0 -15 -5 -40 -10 -55 -12 -31 12 -147 35 -174 7 -8 18 -33 24 -55 6
-22 27 -61 46 -88 55 -74 196 -167 255 -167 16 0 36 -7 44 -16 18 -17 22 -90
7 -113 -17 -26 -113 4 -251 79 -47 25 -176 153 -198 195 -68 132 -71 145 -71
307 1 128 3 157 19 187 10 20 31 60 45 90 44 89 159 187 295 252 64 30 182 47
209 30z m2387 -92 c4 -7 -2 -19 -13 -28 -56 -46 -102 -119 -117 -185 -20 -84
-20 -95 0 -162 21 -72 58 -92 198 -106 60 -6 111 -16 126 -26 l25 -16 -35 -15
c-24 -11 -76 -17 -172 -19 -134 -3 -137 -3 -185 25 -72 41 -111 77 -119 109
-4 16 -14 40 -23 54 -11 16 -16 47 -16 95 1 110 55 195 152 237 15 7 39 20 52
30 27 20 116 25 127 7z m2432 -61 c36 -40 37 -69 2 -139 -18 -35 -36 -71 -41
-79 -5 -8 -14 -26 -20 -40 -6 -14 -14 -32 -19 -40 -9 -19 -86 -26 -107 -8 -26
21 -12 122 25 189 41 72 99 139 121 139 10 0 27 -10 39 -22z m-4325 -54 c20
-19 37 -43 37 -52 0 -10 7 -28 16 -40 45 -65 69 -207 39 -232 -14 -12 -13 -15
5 -35 15 -16 20 -35 20 -77 0 -62 -32 -179 -54 -197 -8 -7 -18 -26 -21 -42 -4
-16 -15 -35 -24 -41 -10 -7 -23 -22 -29 -34 -13 -25 -130 -121 -187 -153 -31
-18 -128 -51 -150 -51 -2 0 -11 7 -19 16 -10 10 -16 33 -16 65 0 45 3 50 28
60 88 35 157 75 204 118 71 65 143 189 152 261 4 30 14 65 21 77 12 18 12 23
0 33 -8 6 -17 33 -20 58 -8 55 -49 165 -76 204 -32 44 -20 98 21 98 8 0 32
-16 53 -36z m3107 -89 c15 -19 5 -68 -26 -122 -13 -23 -24 -48 -24 -56 0 -15
-45 -106 -73 -148 -20 -31 -65 -43 -103 -29 l-25 10 34 43 c19 23 37 55 41 71
4 16 16 41 27 54 10 14 19 31 19 39 0 15 47 120 63 141 13 16 52 15 67 -3z
m-3692 -38 c2 -25 -5 -55 -20 -85 -33 -68 -32 -157 2 -199 28 -36 105 -73 147
-72 55 1 115 32 150 79 18 25 40 59 48 76 8 18 24 49 36 69 20 33 24 36 30 19
4 -10 8 -55 8 -99 1 -101 -30 -172 -102 -234 -60 -51 -109 -64 -222 -59 -77 3
-97 8 -138 32 -72 42 -124 141 -134 251 -8 85 61 209 142 254 34 18 50 9 53
-32z m5494 -9 c22 -18 55 -56 74 -84 43 -64 46 -126 10 -204 -48 -102 -104
-134 -164 -91 -73 50 -151 72 -322 87 -25 2 -57 9 -72 15 -27 11 -28 13 -28
92 0 61 4 85 17 99 29 32 46 21 80 -50 28 -58 40 -72 87 -101 54 -32 58 -33
148 -29 104 3 139 20 158 72 15 44 12 72 -14 124 -31 60 -42 102 -26 102 6 0
29 -15 52 -32z m-1312 -91 c22 -11 25 -19 22 -58 -2 -24 -9 -49 -15 -56 -14
-14 -375 -22 -395 -9 -18 11 -7 52 24 93 l25 32 107 4 c59 1 130 4 157 5 28 1
61 -4 75 -11z m644 -140 c24 -17 13 -55 -19 -67 -48 -18 -138 25 -117 57 16
25 107 31 136 10z"/>
<path d="M10903 4439 c-133 -17 -240 -68 -333 -158 -88 -86 -110 -130 -110
-218 0 -107 41 -149 74 -75 41 95 130 201 196 235 111 58 186 77 299 77 109 0
188 -19 286 -70 43 -22 195 -167 195 -186 0 -6 9 -22 20 -36 36 -46 108 -196
115 -240 4 -24 14 -63 22 -88 22 -66 23 -347 1 -415 -9 -27 -20 -70 -24 -95
-3 -25 -15 -62 -25 -82 -11 -21 -19 -42 -19 -49 0 -17 -63 -149 -71 -149 -4 0
-12 -15 -18 -33 -13 -38 -164 -197 -229 -242 -113 -76 -428 -71 -572 9 -72 40
-165 134 -180 181 -5 17 -16 48 -24 70 -24 64 -20 160 10 225 48 103 99 140
196 140 71 0 121 -21 176 -73 37 -35 41 -70 16 -120 -31 -60 -32 -60 -86 -17
-62 49 -94 51 -142 10 -48 -42 -53 -76 -22 -137 37 -73 92 -103 187 -103 74 0
74 0 124 46 121 111 125 113 216 123 143 16 240 87 286 211 9 25 23 53 32 63
12 14 16 52 19 170 4 148 3 153 -22 200 -14 26 -26 55 -26 64 0 9 -15 39 -34
67 -54 80 -143 156 -201 170 -16 4 -38 15 -49 24 -14 14 -43 18 -142 20 -121
4 -125 3 -170 -25 -68 -41 -150 -119 -165 -156 -7 -18 -19 -40 -28 -50 -13
-15 -16 -49 -18 -165 -2 -136 -4 -148 -24 -164 -12 -10 -34 -18 -49 -18 -32 0
-119 -64 -147 -108 -10 -15 -23 -33 -30 -40 -7 -7 -22 -45 -34 -84 -19 -62
-21 -86 -16 -202 6 -135 22 -203 57 -241 10 -11 21 -30 24 -42 10 -31 135
-153 176 -170 19 -8 43 -22 52 -30 9 -8 49 -19 89 -24 94 -12 114 -38 53 -69
-26 -13 -523 -15 -4269 -18 -2414 -1 -4359 1 -4516 7 -220 7 -282 12 -307 25
-57 30 -50 56 16 56 18 0 50 9 70 19 21 11 56 22 77 26 22 4 51 14 65 24 14 9
38 23 53 31 78 40 142 116 209 250 39 79 43 92 46 179 5 111 -10 173 -67 279
-22 43 -120 132 -145 132 -24 0 -105 51 -106 67 0 6 5 24 11 40 32 85 26 174
-20 276 -24 52 -108 137 -149 151 -15 5 -37 17 -49 28 -19 18 -36 20 -148 20
-111 0 -131 -2 -154 -20 -14 -10 -38 -23 -51 -27 -31 -9 -112 -86 -151 -143
-52 -76 -72 -154 -73 -272 0 -63 6 -135 16 -180 9 -41 20 -100 23 -131 4 -38
13 -63 26 -75 10 -9 19 -22 19 -29 0 -20 54 -63 113 -90 47 -22 67 -26 102
-20 25 3 47 10 50 16 4 5 -20 42 -52 82 -110 137 -109 135 -116 217 -4 41 -13
98 -22 125 -49 162 30 328 175 368 75 21 98 21 163 0 110 -35 167 -104 167
-203 0 -98 -8 -109 -170 -247 -89 -76 -91 -80 -102 -211 -5 -64 -6 -132 -3
-150 13 -70 147 -172 225 -172 15 0 53 12 84 26 44 20 61 34 76 64 33 64 22
140 -24 172 -22 16 -93 8 -119 -12 -33 -26 -39 -25 -65 10 -34 46 -28 73 27
127 66 65 125 82 205 59 43 -13 63 -26 90 -59 44 -54 76 -135 76 -194 0 -51
-33 -163 -60 -203 -10 -14 -20 -34 -24 -45 -6 -20 -137 -115 -160 -115 -6 0
-33 -12 -61 -25 -47 -23 -60 -25 -215 -25 -160 0 -167 1 -220 28 -139 69 -260
191 -324 327 -16 33 -36 76 -46 95 -10 20 -21 56 -25 80 -4 25 -17 61 -29 80
-20 33 -21 47 -20 271 0 223 2 238 22 270 12 19 24 55 28 79 10 63 79 193 148
278 32 40 61 72 65 72 4 0 20 11 36 25 100 83 190 115 327 115 62 0 115 -6
145 -16 60 -20 157 -69 203 -103 42 -31 130 -122 130 -135 0 -5 14 -31 31 -58
22 -34 38 -48 54 -48 47 0 67 62 37 112 -11 18 -23 51 -27 72 -8 50 -42 92
-130 164 -146 120 -205 141 -416 149 -145 5 -161 4 -225 -17 -76 -26 -160 -65
-169 -80 -4 -6 -21 -16 -38 -24 -38 -16 -147 -121 -185 -178 -70 -106 -132
-245 -132 -297 0 -23 -11 -67 -24 -99 -47 -112 -45 -497 3 -588 12 -21 21 -55
21 -74 0 -19 11 -57 25 -85 13 -27 25 -57 25 -66 0 -9 6 -22 14 -28 8 -7 18
-26 21 -42 4 -16 17 -42 29 -57 12 -15 28 -40 36 -55 25 -50 209 -235 288
-290 83 -57 173 -107 195 -107 8 0 22 -9 31 -19 10 -11 31 -23 47 -26 16 -4
31 -10 34 -15 10 -17 135 -70 165 -70 17 0 52 -10 78 -22 l47 -23 4401 1
c4040 1 4403 3 4431 18 18 9 60 20 95 25 62 9 245 86 275 117 8 8 22 14 32 14
9 0 60 21 112 47 152 77 290 197 407 353 34 45 99 164 106 194 4 16 16 40 26
53 10 13 21 47 25 75 4 29 13 62 21 73 15 23 38 209 38 300 0 116 -21 311 -36
340 -9 17 -19 53 -23 82 -4 30 -17 65 -31 84 -13 18 -24 39 -24 46 0 8 -8 26
-19 41 -10 15 -35 52 -55 84 -43 67 -184 211 -229 234 -17 9 -39 22 -47 29
-19 15 -102 44 -160 55 -55 11 -233 10 -317 -1z m208 -660 c130 -28 239 -166
239 -303 0 -81 -27 -235 -46 -264 -37 -58 -82 -92 -134 -102 -29 -5 -56 -13
-61 -16 -16 -10 -48 26 -55 62 -4 24 0 46 15 77 32 66 29 72 -46 92 -37 10
-82 29 -101 42 -19 12 -38 23 -43 23 -4 0 -24 24 -43 54 -32 46 -36 61 -36
115 0 49 6 72 28 111 37 64 73 92 141 106 73 16 80 16 142 3z"/>
<path d="M10995 3615 c-44 -43 -30 -85 41 -125 62 -35 84 -70 84 -137 l1 -48
39 42 c39 41 40 44 40 117 0 92 -10 115 -63 149 -54 35 -109 36 -142 2z"/>
<path d="M8475 4243 c-16 -9 -42 -26 -57 -39 -15 -12 -42 -25 -60 -29 -18 -3
-54 -16 -79 -27 -39 -18 -50 -30 -67 -70 -19 -46 -19 -49 -3 -81 24 -47 52
-82 79 -96 13 -7 22 -21 22 -35 0 -37 23 -49 79 -41 45 6 51 5 66 -18 9 -15
33 -30 60 -37 42 -12 47 -11 83 13 20 14 53 29 73 32 20 4 48 18 62 31 26 23
27 30 27 118 0 76 -3 98 -19 117 -10 13 -21 33 -25 44 -10 34 -74 93 -123 115
-54 24 -78 25 -118 3z m94 -49 c27 -23 81 -77 114 -114 23 -27 27 -39 27 -93
0 -76 -16 -105 -48 -88 -11 6 -30 11 -41 11 -26 0 -81 47 -81 70 0 11 7 23 16
28 9 5 14 14 10 21 -9 14 -49 14 -63 0 -16 -16 -115 -39 -140 -33 -13 4 -37 1
-54 -6 -36 -15 -49 -4 -49 42 0 40 24 58 79 58 44 0 52 4 112 60 67 63 87 70
118 44z m-64 -289 c51 -24 71 -47 59 -66 -8 -13 -41 -11 -114 9 -94 25 -105
35 -74 66 22 23 69 20 129 -9z"/>
<path d="M6400 3979 c-14 -6 -56 -14 -93 -19 -38 -4 -76 -15 -85 -23 -9 -8
-36 -20 -59 -26 -62 -17 -110 -66 -118 -123 -4 -25 -5 -185 -3 -354 l4 -309
28 -48 c43 -73 125 -104 146 -54 10 25 30 163 30 210 0 18 5 49 10 69 10 34
18 41 98 80 48 23 104 58 124 76 21 19 42 31 47 27 18 -11 31 -78 43 -225 9
-120 16 -154 37 -199 30 -62 61 -89 113 -97 35 -6 37 -5 61 42 l24 49 1 390 0
390 -24 42 c-32 55 -51 73 -78 73 -26 0 -70 -42 -94 -91 -9 -18 -23 -35 -29
-37 -14 -4 -14 -4 -38 80 -12 46 -22 61 -45 73 -33 17 -64 18 -100 4z m176
-303 c-4 -49 -11 -97 -17 -108 -14 -25 -36 -23 -55 7 -9 14 -32 32 -51 41 -31
15 -38 15 -88 -1 -71 -22 -90 -18 -90 20 0 25 5 30 33 36 18 4 41 14 51 23 10
9 28 16 41 16 13 0 30 6 39 14 9 8 31 28 48 44 44 41 55 44 77 18 16 -18 18
-32 12 -110z"/>
<path d="M3185 3935 c-33 -13 -76 -27 -96 -30 -43 -6 -105 -60 -115 -100 -15
-62 31 -114 110 -122 34 -4 52 -13 66 -31 18 -23 20 -41 20 -231 0 -113 5
-246 10 -296 12 -99 33 -134 98 -162 46 -19 63 -10 90 47 21 47 22 59 22 350
0 339 2 349 67 371 54 17 123 60 144 89 16 21 17 31 8 63 -20 72 -33 77 -208
76 -141 0 -162 -2 -216 -24z"/>
<path d="M4732 3947 c-30 -35 -62 -111 -68 -159 -9 -69 -26 -88 -80 -88 -34 0
-44 4 -49 20 -14 43 -52 60 -138 60 -67 0 -87 -4 -121 -24 -57 -34 -91 -74
-103 -121 -6 -22 -17 -55 -24 -72 -11 -28 -11 -37 2 -60 9 -16 19 -41 23 -57
4 -15 25 -53 47 -82 34 -47 40 -61 37 -97 -3 -40 -6 -43 -58 -70 -30 -15 -66
-26 -80 -25 -24 3 -25 6 -33 103 -17 207 -31 269 -79 340 -26 39 -61 77 -89
95 -43 28 -54 30 -134 30 -61 0 -98 -5 -123 -17 -49 -24 -119 -92 -127 -126
-14 -53 28 -107 84 -107 10 0 39 14 66 32 55 36 99 41 139 15 57 -38 20 -84
-86 -107 -42 -9 -77 -27 -146 -76 -13 -9 -36 -34 -53 -56 -64 -89 -23 -220 86
-280 61 -34 104 -35 191 -6 l67 22 21 -26 c29 -35 57 -48 105 -48 33 0 43 5
61 30 25 35 45 37 105 10 41 -19 48 -19 106 -6 34 8 73 25 88 38 121 105 161
165 161 240 0 49 -12 70 -82 145 -26 28 -48 60 -48 70 0 19 46 93 58 93 18 0
124 -49 142 -65 19 -17 20 -31 20 -204 0 -170 2 -190 21 -226 56 -106 130
-143 261 -131 121 11 162 49 139 127 -19 61 -42 79 -104 79 -63 0 -81 12 -97
64 -10 30 -10 60 -1 135 22 177 23 181 77 181 18 0 45 5 60 10 19 8 30 8 38 0
6 -6 14 -57 18 -113 10 -157 28 -234 69 -291 54 -77 79 -91 158 -91 58 0 74 4
107 27 29 21 41 25 52 16 20 -17 6 -131 -25 -195 -32 -66 -62 -78 -144 -62
-66 13 -124 6 -133 -17 -16 -41 -6 -85 27 -116 85 -80 200 -100 298 -50 74 37
143 128 158 209 6 32 19 83 29 113 14 46 17 95 17 300 0 236 -1 247 -24 300
-13 30 -37 69 -55 88 -26 28 -37 32 -70 30 -64 -5 -77 -32 -83 -179 -7 -163
-40 -231 -98 -209 -46 18 -53 38 -57 170 -3 124 -3 126 -38 179 -46 70 -70 80
-116 43 -19 -15 -37 -35 -40 -44 -7 -25 -31 -23 -39 3 -4 11 -19 26 -33 32
-15 7 -44 23 -64 37 -34 23 -38 29 -39 70 0 27 -11 67 -27 100 -27 54 -28 55
-73 58 -30 2 -50 -2 -57 -11z m-892 -692 c18 -21 -4 -45 -41 -45 -38 0 -47 19
-19 42 27 22 44 23 60 3z"/>
<path d="M9350 3749 c-41 -27 -87 -77 -116 -125 -11 -17 -15 -15 -52 26 l-40
45 -85 0 c-80 0 -88 -2 -114 -27 -38 -37 -56 -35 -89 7 -30 39 -65 46 -113 20
-26 -13 -29 -21 -39 -95 -6 -53 -7 -157 -1 -307 9 -224 10 -228 37 -267 31
-45 77 -69 105 -54 36 19 57 86 57 188 0 180 29 285 85 316 29 16 39 16 89 5
31 -7 75 -9 99 -6 41 6 45 5 73 -32 48 -63 84 -117 84 -129 0 -6 9 -19 20 -29
l20 -18 -22 -25 c-13 -13 -50 -36 -84 -52 -65 -29 -94 -60 -94 -98 0 -38 16
-58 71 -87 47 -24 56 -26 95 -16 23 6 53 11 65 11 39 0 116 67 163 143 24 40
47 83 51 96 12 41 -14 106 -64 158 -26 26 -55 60 -65 75 -31 48 -1 98 84 138
46 21 50 26 50 57 0 41 -23 89 -49 103 -11 5 -55 10 -98 10 -70 0 -82 -3 -123
-31z"/>
<path d="M7010 3732 c-76 -36 -132 -93 -146 -149 -9 -33 30 -80 76 -94 35 -11
44 -9 102 20 36 17 74 31 84 31 24 0 67 -37 62 -53 -6 -19 -89 -57 -124 -57
-20 0 -44 -10 -62 -25 -17 -14 -34 -25 -39 -25 -5 0 -36 -25 -68 -56 -62 -60
-81 -108 -65 -163 12 -41 99 -130 149 -152 49 -21 125 -20 199 3 28 8 37 7 55
-9 32 -28 73 -43 117 -43 36 0 41 4 60 40 18 34 20 58 20 197 0 167 -11 262
-36 328 -24 62 -78 137 -125 175 -43 34 -46 35 -144 37 -55 1 -107 -1 -115 -5z
m163 -486 c7 -18 -12 -36 -39 -36 -29 0 -39 16 -24 35 16 19 56 19 63 1z"/>
<path d="M8242 3704 c-32 -22 -58 -48 -64 -65 -18 -51 -47 -48 -99 10 -36 40
-52 51 -77 51 -32 0 -92 -42 -92 -64 0 -7 -11 -23 -25 -36 -14 -13 -25 -28
-25 -34 0 -20 -95 -205 -105 -206 -6 0 -28 54 -48 120 -40 127 -83 196 -139
220 -29 13 -81 6 -96 -13 -17 -22 -22 -78 -15 -164 5 -65 11 -89 25 -103 12
-11 21 -37 24 -71 6 -53 23 -100 70 -192 13 -26 24 -52 24 -58 0 -6 25 -35 55
-65 70 -71 103 -78 161 -36 29 22 53 53 79 104 53 103 85 160 107 184 10 11
22 42 27 68 5 27 16 55 24 63 13 13 16 7 26 -58 6 -41 17 -94 25 -119 8 -25
17 -61 21 -80 9 -41 34 -77 95 -136 110 -107 273 -94 353 28 43 65 72 206 72
343 -1 78 -5 99 -30 156 -32 70 -70 119 -126 159 -28 21 -47 25 -114 28 -78 3
-81 2 -133 -34z m168 -229 l30 -16 0 -108 c0 -103 -2 -111 -26 -140 -14 -17
-32 -31 -40 -31 -17 0 -39 43 -48 92 -7 38 7 148 24 193 11 29 20 31 60 10z"/>
<path d="M1504 3642 c-12 -4 -38 -27 -58 -50 -43 -52 -49 -105 -16 -140 44
-47 166 -20 224 48 71 85 -28 179 -150 142z"/>
<path d="M5277 1698 c-32 -12 -34 -17 -43 -178 -11 -198 -15 -190 77 -190 77
0 132 39 152 107 22 74 41 63 47 -27 l5 -75 235 -2 c202 -1 237 1 253 14 15
15 19 15 35 0 26 -24 79 -22 92 2 5 11 10 73 11 138 0 119 9 174 22 140 3 -8
9 -43 13 -76 3 -33 16 -96 28 -138 l22 -78 45 -3 c56 -4 75 14 89 86 5 29 15
62 21 75 7 12 17 46 23 77 8 37 16 55 26 55 12 0 15 -23 18 -140 2 -96 6 -142
15 -147 16 -11 337 -7 360 4 9 5 17 14 17 21 0 7 5 19 10 27 8 12 14 10 39
-17 61 -67 115 -29 93 65 -9 40 -8 57 9 106 23 71 23 75 3 115 -22 44 -54 54
-144 47 -98 -8 -108 -19 -109 -123 0 -43 -4 -91 -9 -108 -8 -28 -12 -30 -65
-33 -58 -3 -74 8 -38 27 27 15 45 64 32 89 -15 28 -15 27 24 51 27 16 35 27
35 49 0 15 -5 33 -12 40 -19 19 -182 16 -220 -4 -24 -12 -36 -14 -55 -5 -45
20 -71 13 -98 -26 -14 -21 -25 -47 -25 -58 0 -27 -15 -49 -28 -41 -5 3 -13 31
-17 61 -9 75 -54 107 -95 70 -15 -14 -18 -14 -30 0 -18 21 -54 19 -75 -5 -15
-17 -19 -42 -23 -133 -5 -125 -12 -145 -45 -122 -12 8 -31 15 -44 15 -44 0
-52 21 -46 128 5 85 3 100 -12 116 -13 13 -27 16 -49 11 -17 -3 -38 -5 -46 -5
-8 1 -51 3 -94 6 -123 9 -163 -1 -188 -42 -24 -42 -32 -42 -48 -5 -7 18 -24
34 -42 40 -38 13 -113 13 -151 -1z m501 -165 c4 -84 -7 -103 -56 -97 -67 10
-68 13 -29 45 46 38 50 74 10 91 l-28 11 25 8 c14 4 36 7 50 6 23 -2 25 -6 28
-64z m1102 52 c0 -8 -4 -15 -10 -15 -5 0 -10 7 -10 15 0 8 5 15 10 15 6 0 10
-7 10 -15z m-1498 -44 c-3 -49 -18 -84 -33 -76 -5 4 -9 33 -9 66 0 57 1 60 23
57 19 -3 22 -8 19 -47z"/>
<path d="M7052 1694 c-35 -14 -44 -52 -17 -74 8 -7 17 -28 21 -49 3 -20 15
-52 27 -71 12 -20 23 -62 26 -100 6 -62 7 -65 34 -68 40 -5 57 14 57 62 0 26
9 56 25 81 13 22 25 49 25 60 0 11 7 31 16 43 21 30 34 79 27 98 -18 48 -99
30 -105 -23 -5 -40 -24 -39 -53 6 -33 48 -42 53 -83 35z"/>
<path d="M4931 1592 c-13 -25 -3 -82 15 -89 8 -3 35 -1 62 4 40 7 47 11 47 32
0 28 -37 58 -82 67 -25 5 -33 2 -42 -14z"/>
<path d="M7992 1594 c-25 -17 -29 -56 -8 -73 23 -19 71 -30 89 -20 22 13 33
75 17 94 -16 20 -70 19 -98 -1z"/>
<path d="M4410 1578 c-45 -48 -10 -106 57 -93 45 8 93 35 93 51 0 7 -14 24
-31 38 -39 33 -90 35 -119 4z"/>
<path d="M7501 1581 c-6 -10 -22 -22 -36 -25 -39 -10 -30 -29 26 -55 48 -23
52 -24 79 -8 21 13 52 17 125 17 53 0 117 5 143 12 l47 12 -50 13 c-27 7 -91
13 -141 13 -76 0 -95 3 -114 20 -29 25 -66 26 -79 1z"/>
</g>
</svg>
